<?xml version="1.0" encoding="UTF-8"?>
<svg id="Layer_1" xmlns="http://www.w3.org/2000/svg" xmlns:xlink="http://www.w3.org/1999/xlink" version="1.1" viewBox="0 0 445 100">
  <!-- Generator: Adobe Illustrator 29.2.1, SVG Export Plug-In . SVG Version: 2.1.0 Build 116)  -->
  <defs>
    <style>
      .st0 {
        fill: url(#linear-gradient);
      }

      .st1, .st2, .st3 {
        isolation: isolate;
      }

      .st1, .st3 {
        font-family: MavenPro-Bold, 'Maven Pro';
        font-size: 90.63px;
        font-weight: 700;
      }

      .st4, .st3 {
        fill: #24af63;
      }

      .st5 {
        fill: #ecdc86;
      }

      .st6 {
        fill: #396e35;
      }

      .st7 {
        fill: #3f2b29;
      }

      .st8 {
        fill: #a0918f;
      }
    </style>
    <linearGradient id="linear-gradient" x1="-323.69" y1="212.43" x2="-323.21" y2="212.43" gradientTransform="translate(6176.23 17681.35) rotate(38) scale(48.1 -48.1)" gradientUnits="userSpaceOnUse">
      <stop offset="0" stop-color="#0c542a"/>
      <stop offset=".2" stop-color="#0c542a"/>
      <stop offset=".6" stop-color="#25af64"/>
      <stop offset=".8" stop-color="#25af64"/>
      <stop offset="1" stop-color="#25af64"/>
    </linearGradient>
  </defs>
  <g>
    <path id="path24" class="st4" d="M442.8,44.52v1.55s-.03.01-.09.04l-.78-.65c-1.73-1.47-3.58-2.76-5.66-3.8-.35-.17-.69-.39-1.08-.47,0-.04-.09-.09-.13-.09-.78-.3-1.55-.56-2.37-.78-1.77-.39-3.54-.43-5.31-.09-2.29.47-4.32,1.47-6.26,2.76-1.9,1.3-3.63,2.81-5.22,4.4-.2.2-.36.17-.47-.09-.86-1.77-1.81-3.5-2.98-5.09-.91-1.21-1.9-2.33-3.2-3.11-1.3-.82-2.72-1.12-4.23-.73-1.86.43-3.37,1.55-4.79,2.76-.86.65-1.64,1.42-2.42,2.16-.73.65-1.42,1.3-2.16,1.94-.13.13-.22.13-.35,0-.73-.78-1.51-1.47-2.42-1.94-1.34-.73-2.72-.82-4.14-.35-1.21.39-2.25,1.04-3.32,1.73-.43.26-.82.56-1.25.78v-.35c.09-1.9.22-3.84.52-5.74.43-2.63,1.08-5.18,2.25-7.56.86-1.77,2.03-3.41,3.5-4.75,1.94-1.77,4.23-2.89,6.74-3.58,2.72-.78,5.48-1.12,8.29-1.25,1.12,0,2.2-.09,3.32-.13.56.22,1.12.35,1.68.52.82.26,1.64.52,2.46.73.43.17.82.3,1.25.47,1.6.56,3.15,1.3,4.49,2.37.35.26.69.56,1.04.86-.09-.26-.17-.47-.26-.73-.6-1.6-1.51-2.89-2.98-3.8-.6-.39-1.25-.65-1.9-.99h.17c1.94-.35,3.93-.52,5.92-.6,1.68-.09,3.41,0,5.09.13,1.99.22,3.93.6,5.79,1.3,2.76,1.04,5.14,2.63,6.99,4.97,1.6,2.03,2.63,4.36,3.28,6.86.65,2.46.91,5.01.99,7.56v2.81"/>
    <path id="path26" class="st5" d="M442.8,41.67h0v2.85h0v-2.85Z"/>
    <path id="path28" class="st8" d="M427.04.69h-1.94,1.94Z"/>
    <path id="path30" class="st4" d="M428.3,82.04c1.08-.43,2.12-.99,3.15-1.55,1.21-.73,2.33-1.51,3.45-2.33.95-.69,1.86-1.42,2.76-2.2l1.55-1.3c.09-.09.09-.04.13.04.17.69.3,1.42.47,2.16.22.99.35,1.99.47,2.98.13,1.17.17,2.29.09,3.45-.09,1.42-.35,2.85-.86,4.19-.3.82-.69,1.6-1.17,2.33-.6.95-1.3,1.81-2.16,2.55-.99.91-2.12,1.68-3.32,2.33-1.6.91-3.32,1.55-5.09,2.07-1.68.52-3.41.86-5.14,1.17-.47.09-.95.17-1.42.17-.99-.04-1.99-.26-2.94-.6-1.42-.56-2.68-1.42-4.1-2.07-.78-.35-1.55-.6-2.37-.65-1.08-.09-1.99.3-2.76,1.04l-1.68,1.68c-.95.95-2.07,1.6-3.41,1.81-.91.13-1.77.09-2.68-.04-1.25-.17-2.46-.47-3.63-.82-1.73-.56-3.32-1.34-4.79-2.46-1.38-1.04-2.46-2.33-3.37-3.8-.91-1.51-1.42-3.11-1.81-4.79-.17-.73-.26-1.51-.35-2.25-.13-1.08-.17-2.12-.13-3.2,0-1.51.17-2.98.39-4.49.17.17.35.3.47.43.95.86,2.03,1.64,3.15,2.33,1.25.73,2.63,1.34,4.06,1.73.95.26,1.94.43,2.94.47.82.09,1.64.09,2.46.04.95-.04,1.94-.13,2.89-.39.13,0,.26,0,.35-.04.86-.17,1.73-.39,2.59-.65.99-.3,1.94-.6,2.89-.95.91-.35,1.86-.73,2.76-1.12.26-.13.43-.09.65.09,1.51,1.17,3.15,2.16,4.92,2.89,1.99.78,4.02,1.17,6.13.99,1.55-.3,3.02-.69,4.45-1.25"/>
    <path id="path32" class="st5" d="M428.3,82.04c-1.42.56-2.89.95-4.4,1.08-2.12.17-4.14-.22-6.13-.99-1.77-.69-3.41-1.68-4.92-2.89-.22-.17-.39-.22-.65-.09-.91.39-1.81.78-2.76,1.12s-1.9.69-2.89.95c-.86.26-1.73.43-2.59.65-.13.04-.26.04-.35.04l.91-1.04c1.21-1.38,2.07-2.98,2.55-4.79.69-2.42,1.38-4.88,1.99-7.34.43-1.81.78-3.63,1.04-5.48.17-1.34.43-6.43.35-7.64-.22-3.71-1.04-7.25-2.55-10.66-.91-2.03-2.46-3.41-4.62-3.97-.95-.26-1.9-.17-2.81.13-.09.04-.13.09-.22.04,1.42-1.21,2.89-2.33,4.79-2.76,1.51-.35,2.94-.09,4.23.73s2.29,1.9,3.2,3.11c1.17,1.6,2.12,3.32,2.98,5.09.12.26.27.29.47.09,1.6-1.64,3.32-3.15,5.22-4.4,1.9-1.3,3.97-2.29,6.26-2.76,1.77-.35,3.54-.3,5.31.09.82.17,1.6.43,2.37.78,0,.04.13.04.13.09-2.29.04-4.23.91-6,2.25-.86.65-1.64,1.38-2.25,2.29-.47.73-.91,1.55-1.25,2.37-.78,1.64-1.42,3.37-1.9,5.14-.39,1.51-.65,3.07-.78,4.62-.09,1.21-.13,2.42-.09,3.63,0,1.47.22,2.94.39,4.45.3,2.46.73,4.92,1.17,7.38.22,1.34.39,2.72.65,4.1.3,1.99,1.42,3.45,3.02,4.58,0-.04.09,0,.13.04"/>
    <path id="path34" class="st7" d="M425.1.74h1.94c1.55.09,3.11.35,4.58.86,1.17.39,1.42,1.17.73,2.16-.47.69-1.17,1.21-1.9,1.68-.91.6-1.9,1.12-2.98,1.51-1.08.43-2.12,0-2.81-1.08-.22-.35-.39-.69-.47-1.08,0-.13-.09-.17-.22-.17-2.42-.43-4.58.13-6.35,1.86-1.47,1.38-2.33,3.15-2.94,5.05-.56,1.73-.82,3.45-.91,5.27-.09,1.6,0,3.2.26,4.75,0,.26.13.52.13.82,0,.35-.09.65-.35.82-.3.22-.65.17-.99.17-.82-.26-1.64-.52-2.46-.73v-3.11c.17-3.32.69-6.61,1.99-9.71.95-2.33,2.33-4.36,4.27-5.96,1.6-1.34,3.41-2.2,5.44-2.68,1.04-.26,1.99-.39,2.98-.43"/>
    <path id="path36" class="st6" d="M412.88,23.32c.35,0,.69,0,.99-.17s.39-.52.35-.82c0-.26-.09-.56-.13-.82h.47c.6.35,1.25.65,1.9.99,1.47.91,2.37,2.2,2.98,3.8.09.26.17.47.26.73-.35-.3-.69-.6-1.04-.86-1.38-1.04-2.89-1.77-4.49-2.37-.47-.13-.86-.26-1.3-.43"/>
    <path id="path38" class="st6" d="M410.42,22.02v.56c-.56-.17-1.12-.3-1.68-.52h1.68"/>
  </g>
  <g class="st2">
    <g class="st2">
      <text class="st3" transform="translate(-4.15 80.48)"><tspan x="0" y="0">DNA-</tspan></text>
    </g>
    <g class="st2">
      <text class="st1" transform="translate(230.55 80.48)"><tspan x="0" y="0">inn</tspan></text>
    </g>
  </g>
  <path id="path67" class="st0" d="M205.42,48.06l-9.76,9.28h27.63v-9.28h-17.87Z"/>
</svg>