<?xml version="1.0" encoding="UTF-8"?>
<svg id="Layer_1" xmlns="http://www.w3.org/2000/svg" xmlns:xlink="http://www.w3.org/1999/xlink" version="1.1" viewBox="0 0 445 100">
  <!-- Generator: Adobe Illustrator 29.4.0, SVG Export Plug-In . SVG Version: 2.1.0 Build 152)  -->
  <defs>
    <style>
      .st0 {
        fill: url(#linear-gradient);
      }

      .st1, .st2, .st3 {
        isolation: isolate;
      }

      .st1, .st3 {
        font-family: MavenPro-Bold, 'Maven Pro';
        font-size: 90.6px;
        font-weight: 700;
      }

      .st4, .st3 {
        fill: #24af63;
      }

      .st5 {
        fill: #ecdc86;
      }

      .st6 {
        fill: #396e35;
      }

      .st7 {
        fill: #3f2b29;
      }

      .st8 {
        fill: #a0918f;
      }
    </style>
    <linearGradient id="linear-gradient" x1="-515.3" y1="137.4" x2="-514.8" y2="137.4" gradientTransform="translate(23796.7 10097) rotate(38) scale(48.1)" gradientUnits="userSpaceOnUse">
      <stop offset="0" stop-color="#0c542a"/>
      <stop offset=".2" stop-color="#0c542a"/>
      <stop offset=".6" stop-color="#25af64"/>
      <stop offset=".8" stop-color="#25af64"/>
      <stop offset="1" stop-color="#25af64"/>
    </linearGradient>
  </defs>
  <g>
    <path id="path24" class="st4" d="M442.8,44.5v1.5s0,0,0,0l-.8-.7c-1.7-1.5-3.6-2.8-5.7-3.8-.4-.2-.7-.4-1.1-.5,0,0,0,0-.1,0-.8-.3-1.5-.6-2.4-.8-1.8-.4-3.5-.4-5.3,0-2.3.5-4.3,1.5-6.3,2.8-1.9,1.3-3.6,2.8-5.2,4.4-.2.2-.4.2-.5,0-.9-1.8-1.8-3.5-3-5.1-.9-1.2-1.9-2.3-3.2-3.1-1.3-.8-2.7-1.1-4.2-.7-1.9.4-3.4,1.5-4.8,2.8-.9.7-1.6,1.4-2.4,2.2-.7.7-1.4,1.3-2.2,1.9-.1.1-.2.1-.4,0-.7-.8-1.5-1.5-2.4-1.9-1.3-.7-2.7-.8-4.1-.3-1.2.4-2.2,1-3.3,1.7-.4.3-.8.6-1.2.8v-.3c0-1.9.2-3.8.5-5.7.4-2.6,1.1-5.2,2.2-7.6.9-1.8,2-3.4,3.5-4.8,1.9-1.8,4.2-2.9,6.7-3.6,2.7-.8,5.5-1.1,8.3-1.2,1.1,0,2.2,0,3.3-.1.6.2,1.1.4,1.7.5.8.3,1.6.5,2.5.7.4.2.8.3,1.2.5,1.6.6,3.1,1.3,4.5,2.4.4.3.7.6,1,.9,0-.3-.2-.5-.3-.7-.6-1.6-1.5-2.9-3-3.8-.6-.4-1.2-.6-1.9-1h.2c1.9-.4,3.9-.5,5.9-.6,1.7,0,3.4,0,5.1.1,2,.2,3.9.6,5.8,1.3,2.8,1,5.1,2.6,7,5,1.6,2,2.6,4.4,3.3,6.9.6,2.5.9,5,1,7.6v2.8"/>
    <path id="path26" class="st5" d="M442.8,41.7h0v2.8h0v-2.8Z"/>
    <path id="path28" class="st8" d="M427,.7h-1.9,1.9Z"/>
    <path id="path30" class="st4" d="M428.3,82c1.1-.4,2.1-1,3.1-1.6,1.2-.7,2.3-1.5,3.5-2.3,1-.7,1.9-1.4,2.8-2.2l1.5-1.3c0,0,0,0,.1,0,.2.7.3,1.4.5,2.2.2,1,.4,2,.5,3,.1,1.2.2,2.3,0,3.4,0,1.4-.4,2.8-.9,4.2-.3.8-.7,1.6-1.2,2.3-.6.9-1.3,1.8-2.2,2.6-1,.9-2.1,1.7-3.3,2.3-1.6.9-3.3,1.6-5.1,2.1-1.7.5-3.4.9-5.1,1.2-.5,0-1,.2-1.4.2-1,0-2-.3-2.9-.6-1.4-.6-2.7-1.4-4.1-2.1-.8-.3-1.5-.6-2.4-.7-1.1,0-2,.3-2.8,1l-1.7,1.7c-1,.9-2.1,1.6-3.4,1.8-.9.1-1.8,0-2.7,0-1.2-.2-2.5-.5-3.6-.8-1.7-.6-3.3-1.3-4.8-2.5-1.4-1-2.5-2.3-3.4-3.8-.9-1.5-1.4-3.1-1.8-4.8-.2-.7-.3-1.5-.4-2.2-.1-1.1-.2-2.1-.1-3.2,0-1.5.2-3,.4-4.5.2.2.4.3.5.4,1,.9,2,1.6,3.1,2.3,1.2.7,2.6,1.3,4.1,1.7,1,.3,1.9.4,2.9.5.8,0,1.6,0,2.5,0,1,0,1.9-.1,2.9-.4.1,0,.3,0,.4,0,.9-.2,1.7-.4,2.6-.7,1-.3,1.9-.6,2.9-.9.9-.3,1.9-.7,2.8-1.1.3-.1.4,0,.6,0,1.5,1.2,3.1,2.2,4.9,2.9,2,.8,4,1.2,6.1,1,1.5-.3,3-.7,4.5-1.2"/>
    <path id="path32" class="st5" d="M428.3,82c-1.4.6-2.9.9-4.4,1.1-2.1.2-4.1-.2-6.1-1-1.8-.7-3.4-1.7-4.9-2.9-.2-.2-.4-.2-.6,0-.9.4-1.8.8-2.8,1.1s-1.9.7-2.9.9c-.9.3-1.7.4-2.6.7-.1,0-.3,0-.4,0l.9-1c1.2-1.4,2.1-3,2.5-4.8.7-2.4,1.4-4.9,2-7.3.4-1.8.8-3.6,1-5.5.2-1.3.4-6.4.4-7.6-.2-3.7-1-7.2-2.5-10.7-.9-2-2.5-3.4-4.6-4-1-.3-1.9-.2-2.8.1,0,0-.1,0-.2,0,1.4-1.2,2.9-2.3,4.8-2.8,1.5-.3,2.9,0,4.2.7s2.3,1.9,3.2,3.1c1.2,1.6,2.1,3.3,3,5.1.1.3.3.3.5,0,1.6-1.6,3.3-3.2,5.2-4.4,1.9-1.3,4-2.3,6.3-2.8,1.8-.3,3.5-.3,5.3,0,.8.2,1.6.4,2.4.8,0,0,.1,0,.1,0-2.3,0-4.2.9-6,2.2-.9.7-1.6,1.4-2.2,2.3-.5.7-.9,1.5-1.2,2.4-.8,1.6-1.4,3.4-1.9,5.1-.4,1.5-.6,3.1-.8,4.6,0,1.2-.1,2.4,0,3.6,0,1.5.2,2.9.4,4.5.3,2.5.7,4.9,1.2,7.4.2,1.3.4,2.7.6,4.1.3,2,1.4,3.4,3,4.6,0,0,0,0,.1,0"/>
    <path id="path34" class="st7" d="M425.1.7h1.9c1.5,0,3.1.4,4.6.9,1.2.4,1.4,1.2.7,2.2-.5.7-1.2,1.2-1.9,1.7-.9.6-1.9,1.1-3,1.5-1.1.4-2.1,0-2.8-1.1-.2-.3-.4-.7-.5-1.1,0-.1,0-.2-.2-.2-2.4-.4-4.6.1-6.4,1.9-1.5,1.4-2.3,3.2-2.9,5.1-.6,1.7-.8,3.4-.9,5.3,0,1.6,0,3.2.3,4.8,0,.3.1.5.1.8s0,.6-.4.8c-.3.2-.6.2-1,.2-.8-.3-1.6-.5-2.5-.7v-3.1c.2-3.3.7-6.6,2-9.7,1-2.3,2.3-4.4,4.3-6,1.6-1.3,3.4-2.2,5.4-2.7,1-.3,2-.4,3-.4"/>
    <path id="path36" class="st6" d="M412.9,23.3c.4,0,.7,0,1-.2s.4-.5.4-.8c0-.3,0-.6-.1-.8h.5c.6.4,1.2.6,1.9,1,1.5.9,2.4,2.2,3,3.8,0,.3.2.5.3.7-.4-.3-.7-.6-1-.9-1.4-1-2.9-1.8-4.5-2.4-.5-.1-.9-.3-1.3-.4"/>
    <path id="path38" class="st6" d="M410.4,22v.6c-.6-.2-1.1-.3-1.7-.5h1.7"/>
  </g>
  <g class="st2">
    <g class="st2">
      <g class="st2">
        <text class="st3" transform="translate(-4.1 80.5)"><tspan x="0" y="0">RNA-</tspan></text>
      </g>
    </g>
    <g class="st2">
      <g class="st2">
        <text class="st1" transform="translate(230.5 80.5)"><tspan x="0" y="0">inn</tspan></text>
      </g>
    </g>
  </g>
  <path id="path67" class="st0" d="M205.4,48.1l-9.8,9.3h27.6v-9.3h-17.9Z"/>
</svg>